<svg xmlns="http://www.w3.org/2000/svg" width="960" height="720" viewBox="0 0 960 720">
<rect x="0" y="0" width="960" height="720" fill="#f8fafc" />
<text x="52" y="44" font-size="26" font-family="Helvetica, Arial, sans-serif" fill="#0f172a">Frederiksberg, Denmark</text>
<text x="52" y="72" font-size="13" font-family="Helvetica, Arial, sans-serif" fill="#475569">TomTom-grounded snapshot with real station positions, connector availability, and route times.</text>
<circle cx="225.6" cy="545.4" r="5.5" fill="#94a3b8" opacity="0.65" />
<circle cx="395.2" cy="545.4" r="5.5" fill="#94a3b8" opacity="0.65" />
<circle cx="564.8" cy="545.4" r="5.5" fill="#94a3b8" opacity="0.65" />
<circle cx="734.4" cy="545.4" r="5.5" fill="#94a3b8" opacity="0.65" />
<circle cx="56.0" cy="360.0" r="5.5" fill="#94a3b8" opacity="0.65" />
<circle cx="225.6" cy="360.0" r="5.5" fill="#94a3b8" opacity="0.65" />
<circle cx="395.2" cy="360.0" r="5.5" fill="#94a3b8" opacity="0.65" />
<circle cx="564.8" cy="360.0" r="5.5" fill="#94a3b8" opacity="0.65" />
<circle cx="734.4" cy="360.0" r="5.5" fill="#94a3b8" opacity="0.65" />
<circle cx="904.0" cy="360.0" r="5.5" fill="#94a3b8" opacity="0.65" />
<circle cx="225.6" cy="174.6" r="5.5" fill="#94a3b8" opacity="0.65" />
<circle cx="395.2" cy="174.6" r="5.5" fill="#94a3b8" opacity="0.65" />
<circle cx="564.8" cy="174.6" r="5.5" fill="#94a3b8" opacity="0.65" />
<circle cx="734.4" cy="174.6" r="5.5" fill="#94a3b8" opacity="0.65" />
<circle cx="827.7" cy="360.0" r="5.5" fill="#94a3b8" opacity="0.65" />
<circle cx="801.2" cy="243.7" r="5.5" fill="#94a3b8" opacity="0.65" />
<circle cx="725.8" cy="145.0" r="5.5" fill="#94a3b8" opacity="0.65" />
<circle cx="613.1" cy="79.1" r="5.5" fill="#94a3b8" opacity="0.65" />
<circle cx="480.0" cy="56.0" r="5.5" fill="#94a3b8" opacity="0.65" />
<circle cx="346.9" cy="79.1" r="5.5" fill="#94a3b8" opacity="0.65" />
<circle cx="234.2" cy="145.0" r="5.5" fill="#94a3b8" opacity="0.65" />
<circle cx="158.8" cy="243.7" r="5.5" fill="#94a3b8" opacity="0.65" />
<circle cx="132.3" cy="360.0" r="5.5" fill="#94a3b8" opacity="0.65" />
<circle cx="158.8" cy="476.3" r="5.5" fill="#94a3b8" opacity="0.65" />
<circle cx="234.2" cy="575.0" r="5.5" fill="#94a3b8" opacity="0.65" />
<circle cx="346.9" cy="640.9" r="5.5" fill="#94a3b8" opacity="0.65" />
<circle cx="480.0" cy="664.0" r="5.5" fill="#94a3b8" opacity="0.65" />
<circle cx="613.1" cy="640.9" r="5.5" fill="#94a3b8" opacity="0.65" />
<circle cx="725.8" cy="575.0" r="5.5" fill="#94a3b8" opacity="0.65" />
<circle cx="801.2" cy="476.3" r="5.5" fill="#94a3b8" opacity="0.65" />
<circle cx="426.6" cy="335.1" r="6.4" fill="#0f766e" stroke="#0f172a" stroke-width="1.2" />
<text x="435.6" y="327.1" font-size="11" font-family="Helvetica, Arial, sans-serif" fill="#0f172a">Norlys</text>
<circle cx="432.4" cy="352.3" r="12.4" fill="#0f766e" stroke="#0f172a" stroke-width="1.2" />
<text x="441.4" y="344.3" font-size="11" font-family="Helvetica, Arial, sans-serif" fill="#0f172a">EDF Danmark A/S</text>
<circle cx="432.4" cy="352.3" r="12.4" fill="#0f766e" stroke="#0f172a" stroke-width="1.2" />
<text x="441.4" y="344.3" font-size="11" font-family="Helvetica, Arial, sans-serif" fill="#0f172a">EDF Danmark A/S</text>
<circle cx="436.9" cy="355.1" r="7.6" fill="#b91c1c" stroke="#0f172a" stroke-width="1.2" />
<text x="445.9" y="347.1" font-size="11" font-family="Helvetica, Arial, sans-serif" fill="#0f172a">Clever</text>
<circle cx="437.0" cy="337.8" r="6.8" fill="#b91c1c" stroke="#0f172a" stroke-width="1.2" />
<text x="446.0" y="329.8" font-size="11" font-family="Helvetica, Arial, sans-serif" fill="#0f172a">Clever</text>
<circle cx="437.0" cy="356.1" r="6.8" fill="#0f766e" stroke="#0f172a" stroke-width="1.2" />
<text x="446.0" y="348.1" font-size="11" font-family="Helvetica, Arial, sans-serif" fill="#0f172a">E.ON Drive Infrastructure Denmark ApS</text>
<circle cx="441.9" cy="313.7" r="6.0" fill="#b91c1c" stroke="#0f172a" stroke-width="1.2" />
<text x="450.9" y="305.7" font-size="11" font-family="Helvetica, Arial, sans-serif" fill="#0f172a">E.ON Drive</text>
<circle cx="447.4" cy="360.2" r="8.4" fill="#0f766e" stroke="#0f172a" stroke-width="1.2" />
<text x="456.4" y="352.2" font-size="11" font-family="Helvetica, Arial, sans-serif" fill="#0f172a">OK</text>
<circle cx="448.0" cy="309.6" r="6.0" fill="#b91c1c" stroke="#0f172a" stroke-width="1.2" />
<text x="457.0" y="301.6" font-size="11" font-family="Helvetica, Arial, sans-serif" fill="#0f172a">Virta</text>
<circle cx="456.5" cy="335.1" r="9.2" fill="#0f766e" stroke="#0f172a" stroke-width="1.2" />
<text x="465.5" y="327.1" font-size="11" font-family="Helvetica, Arial, sans-serif" fill="#0f172a">Clever</text>
<circle cx="459.5" cy="317.2" r="8.4" fill="#0f766e" stroke="#0f172a" stroke-width="1.2" />
<text x="468.5" y="309.2" font-size="11" font-family="Helvetica, Arial, sans-serif" fill="#0f172a">E.ON Drive</text>
<circle cx="474.0" cy="380.2" r="8.4" fill="#0f766e" stroke="#0f172a" stroke-width="1.2" />
<text x="483.0" y="372.2" font-size="11" font-family="Helvetica, Arial, sans-serif" fill="#0f172a">Clever</text>
<circle cx="478.7" cy="344.1" r="7.6" fill="#0f766e" stroke="#0f172a" stroke-width="1.2" />
<text x="487.7" y="336.1" font-size="11" font-family="Helvetica, Arial, sans-serif" fill="#0f172a">Clever</text>
<circle cx="485.4" cy="366.1" r="6.8" fill="#0f766e" stroke="#0f172a" stroke-width="1.2" />
<text x="494.4" y="358.1" font-size="11" font-family="Helvetica, Arial, sans-serif" fill="#0f172a">OK</text>
<circle cx="490.9" cy="301.5" r="9.2" fill="#0f766e" stroke="#0f172a" stroke-width="1.2" />
<text x="499.9" y="293.5" font-size="11" font-family="Helvetica, Arial, sans-serif" fill="#0f172a">Clever</text>
<circle cx="496.6" cy="400.6" r="6.8" fill="#0f766e" stroke="#0f172a" stroke-width="1.2" />
<text x="505.6" y="392.6" font-size="11" font-family="Helvetica, Arial, sans-serif" fill="#0f172a">Clever</text>
<circle cx="499.9" cy="363.7" r="9.2" fill="#0f766e" stroke="#0f172a" stroke-width="1.2" />
<text x="508.9" y="355.7" font-size="11" font-family="Helvetica, Arial, sans-serif" fill="#0f172a">Clever</text>
<circle cx="527.6" cy="401.5" r="6.0" fill="#b91c1c" stroke="#0f172a" stroke-width="1.2" />
<text x="536.6" y="393.5" font-size="11" font-family="Helvetica, Arial, sans-serif" fill="#0f172a">E.ON Drive</text>
<circle cx="530.2" cy="353.8" r="7.6" fill="#0f766e" stroke="#0f172a" stroke-width="1.2" />
<text x="539.2" y="345.8" font-size="11" font-family="Helvetica, Arial, sans-serif" fill="#0f172a">E.ON Drive</text>
<circle cx="532.1" cy="389.8" r="9.2" fill="#b91c1c" stroke="#0f172a" stroke-width="1.2" />
<text x="541.1" y="381.8" font-size="11" font-family="Helvetica, Arial, sans-serif" fill="#0f172a">Clever</text>
<text x="52" y="694" font-size="12" font-family="Helvetica, Arial, sans-serif" fill="#4b5563">Gray circles: synthetic demand zones. Green/red circles: TomTom stations sized by connectors and colored by available connectors.</text>
</svg>