<svg xmlns="http://www.w3.org/2000/svg" width="960" height="720" viewBox="0 0 960 720">
<rect x="0" y="0" width="960" height="720" fill="#f8fafc" />
<text x="52" y="44" font-size="26" font-family="Helvetica, Arial, sans-serif" fill="#0f172a">Roskilde, Denmark</text>
<text x="52" y="72" font-size="13" font-family="Helvetica, Arial, sans-serif" fill="#475569">TomTom-grounded snapshot with real station positions, connector availability, and route times.</text>
<circle cx="56.0" cy="360.0" r="5.5" fill="#94a3b8" opacity="0.65" />
<circle cx="338.7" cy="360.0" r="5.5" fill="#94a3b8" opacity="0.65" />
<circle cx="621.3" cy="360.0" r="5.5" fill="#94a3b8" opacity="0.65" />
<circle cx="904.0" cy="360.0" r="5.5" fill="#94a3b8" opacity="0.65" />
<circle cx="827.7" cy="360.0" r="5.5" fill="#94a3b8" opacity="0.65" />
<circle cx="653.8" cy="56.0" r="5.5" fill="#94a3b8" opacity="0.65" />
<circle cx="306.2" cy="56.0" r="5.5" fill="#94a3b8" opacity="0.65" />
<circle cx="132.3" cy="360.0" r="5.5" fill="#94a3b8" opacity="0.65" />
<circle cx="306.2" cy="664.0" r="5.5" fill="#94a3b8" opacity="0.65" />
<circle cx="653.8" cy="664.0" r="5.5" fill="#94a3b8" opacity="0.65" />
<circle cx="423.1" cy="395.2" r="7.6" fill="#0f766e" stroke="#0f172a" stroke-width="1.2" />
<text x="432.1" y="387.2" font-size="11" font-family="Helvetica, Arial, sans-serif" fill="#0f172a">Spirii</text>
<circle cx="442.4" cy="407.5" r="9.2" fill="#0f766e" stroke="#0f172a" stroke-width="1.2" />
<text x="451.4" y="399.5" font-size="11" font-family="Helvetica, Arial, sans-serif" fill="#0f172a">E.ON Drive</text>
<circle cx="446.3" cy="343.3" r="7.6" fill="#0f766e" stroke="#0f172a" stroke-width="1.2" />
<text x="455.3" y="335.3" font-size="11" font-family="Helvetica, Arial, sans-serif" fill="#0f172a">Spirii</text>
<circle cx="451.2" cy="413.8" r="6.8" fill="#0f766e" stroke="#0f172a" stroke-width="1.2" />
<text x="460.2" y="405.8" font-size="11" font-family="Helvetica, Arial, sans-serif" fill="#0f172a">OK</text>
<circle cx="456.5" cy="390.3" r="8.4" fill="#0f766e" stroke="#0f172a" stroke-width="1.2" />
<text x="465.5" y="382.3" font-size="11" font-family="Helvetica, Arial, sans-serif" fill="#0f172a">Clever</text>
<circle cx="461.3" cy="348.0" r="7.6" fill="#0f766e" stroke="#0f172a" stroke-width="1.2" />
<text x="470.3" y="340.0" font-size="11" font-family="Helvetica, Arial, sans-serif" fill="#0f172a">Clever</text>
<circle cx="461.4" cy="404.5" r="7.6" fill="#0f766e" stroke="#0f172a" stroke-width="1.2" />
<text x="470.4" y="396.5" font-size="11" font-family="Helvetica, Arial, sans-serif" fill="#0f172a">Norlys</text>
<circle cx="461.7" cy="346.9" r="7.6" fill="#b91c1c" stroke="#0f172a" stroke-width="1.2" />
<text x="470.7" y="338.9" font-size="11" font-family="Helvetica, Arial, sans-serif" fill="#0f172a">EDF Danmark A/S</text>
<circle cx="472.8" cy="373.8" r="10.8" fill="#0f766e" stroke="#0f172a" stroke-width="1.2" />
<text x="481.8" y="365.8" font-size="11" font-family="Helvetica, Arial, sans-serif" fill="#0f172a">E.ON Drive</text>
<circle cx="474.6" cy="402.9" r="7.6" fill="#0f766e" stroke="#0f172a" stroke-width="1.2" />
<text x="483.6" y="394.9" font-size="11" font-family="Helvetica, Arial, sans-serif" fill="#0f172a">Clever</text>
<circle cx="489.4" cy="400.2" r="8.4" fill="#0f766e" stroke="#0f172a" stroke-width="1.2" />
<text x="498.4" y="392.2" font-size="11" font-family="Helvetica, Arial, sans-serif" fill="#0f172a">Clever</text>
<circle cx="495.3" cy="358.9" r="6.0" fill="#b91c1c" stroke="#0f172a" stroke-width="1.2" />
<text x="504.3" y="350.9" font-size="11" font-family="Helvetica, Arial, sans-serif" fill="#0f172a">Pair Recharge</text>
<circle cx="496.7" cy="380.0" r="7.6" fill="#b91c1c" stroke="#0f172a" stroke-width="1.2" />
<text x="505.7" y="372.0" font-size="11" font-family="Helvetica, Arial, sans-serif" fill="#0f172a">Clever</text>
<circle cx="497.6" cy="370.6" r="9.2" fill="#0f766e" stroke="#0f172a" stroke-width="1.2" />
<text x="506.6" y="362.6" font-size="11" font-family="Helvetica, Arial, sans-serif" fill="#0f172a">Clever</text>
<circle cx="499.5" cy="354.8" r="10.0" fill="#0f766e" stroke="#0f172a" stroke-width="1.2" />
<text x="508.5" y="346.8" font-size="11" font-family="Helvetica, Arial, sans-serif" fill="#0f172a">E.ON Drive</text>
<circle cx="525.9" cy="364.8" r="6.4" fill="#0f766e" stroke="#0f172a" stroke-width="1.2" />
<text x="534.9" y="356.8" font-size="11" font-family="Helvetica, Arial, sans-serif" fill="#0f172a">Norlys</text>
<circle cx="531.6" cy="393.3" r="10.8" fill="#0f766e" stroke="#0f172a" stroke-width="1.2" />
<text x="540.6" y="385.3" font-size="11" font-family="Helvetica, Arial, sans-serif" fill="#0f172a">Clever</text>
<circle cx="531.8" cy="364.3" r="8.4" fill="#0f766e" stroke="#0f172a" stroke-width="1.2" />
<text x="540.8" y="356.3" font-size="11" font-family="Helvetica, Arial, sans-serif" fill="#0f172a">Norlys</text>
<circle cx="534.9" cy="365.1" r="8.4" fill="#0f766e" stroke="#0f172a" stroke-width="1.2" />
<text x="543.9" y="357.1" font-size="11" font-family="Helvetica, Arial, sans-serif" fill="#0f172a">Spirii</text>
<circle cx="538.5" cy="362.2" r="10.0" fill="#0f766e" stroke="#0f172a" stroke-width="1.2" />
<text x="547.5" y="354.2" font-size="11" font-family="Helvetica, Arial, sans-serif" fill="#0f172a">EWII</text>
<text x="52" y="694" font-size="12" font-family="Helvetica, Arial, sans-serif" fill="#4b5563">Gray circles: synthetic demand zones. Green/red circles: TomTom stations sized by connectors and colored by available connectors.</text>
</svg>